<?xml version="1.0" encoding="UTF-8" standalone="no"?>
<!-- Created with qrencode 4.0.0 (https://fukuchi.org/works/qrencode/index.html) -->

<svg
   xmlns:dc="http://purl.org/dc/elements/1.1/"
   xmlns:cc="http://creativecommons.org/ns#"
   xmlns:rdf="http://www.w3.org/1999/02/22-rdf-syntax-ns#"
   xmlns:svg="http://www.w3.org/2000/svg"
   xmlns="http://www.w3.org/2000/svg"
   xmlns:sodipodi="http://sodipodi.sourceforge.net/DTD/sodipodi-0.dtd"
   xmlns:inkscape="http://www.inkscape.org/namespaces/inkscape"
   width="4.34cm"
   height="4.34cm"
   viewBox="0 0 41 41"
   preserveAspectRatio="none"
   version="1.1"
   id="svg2"
   inkscape:version="0.91 r13725"
   sodipodi:docname="n8henrie_bitcoin.svg">
  <metadata
     id="metadata1130">
    <rdf:RDF>
      <cc:Work
         rdf:about="">
        <dc:format>image/svg+xml</dc:format>
        <dc:type
           rdf:resource="http://purl.org/dc/dcmitype/StillImage" />
      </cc:Work>
    </rdf:RDF>
  </metadata>
  <defs
     id="defs1128" />
  <sodipodi:namedview
     pagecolor="#ffffff"
     bordercolor="#666666"
     borderopacity="1"
     objecttolerance="10"
     gridtolerance="10"
     guidetolerance="10"
     inkscape:pageopacity="0"
     inkscape:pageshadow="2"
     inkscape:window-width="828"
     inkscape:window-height="480"
     id="namedview1126"
     showgrid="false"
     inkscape:zoom="1.5346646"
     inkscape:cx="1.9548246"
     inkscape:cy="76.889766"
     inkscape:window-x="0"
     inkscape:window-y="0"
     inkscape:window-maximized="0"
     inkscape:current-layer="svg2" />
  <rect
     style="fill:#ffffff"
     id="rect5"
     height="41"
     width="41"
     y="0"
     x="0" />
  <g
     transform="translate(4,4)"
     id="Pattern">
    <path
       id="rect1124"
       style="fill:#000000"
       d="m 31,32 1,0 0,1 -1,0 z m -4,0 1,0 0,1 -1,0 z m -3,0 1,0 0,1 -1,0 z m -1,0 1,0 0,1 -1,0 z m -1,0 1,0 0,1 -1,0 z m -1,0 1,0 0,1 -1,0 z m -1,0 1,0 0,1 -1,0 z m -3,0 1,0 0,1 -1,0 z m -6,0 1,0 0,1 -1,0 z m -2,0 1,0 0,1 -1,0 z m -1,0 1,0 0,1 -1,0 z m -2,0 1,0 0,1 -1,0 z m -1,0 1,0 0,1 -1,0 z m -1,0 1,0 0,1 -1,0 z m -1,0 1,0 0,1 -1,0 z m -1,0 1,0 0,1 -1,0 z m -1,0 1,0 0,1 -1,0 z m -1,0 1,0 0,1 -1,0 z m 30,-1 1,0 0,1 -1,0 z m -1,0 1,0 0,1 -1,0 z m -1,0 1,0 0,1 -1,0 z m -1,0 1,0 0,1 -1,0 z m -1,0 1,0 0,1 -1,0 z m -3,0 1,0 0,1 -1,0 z m -1,0 1,0 0,1 -1,0 z m -1,0 1,0 0,1 -1,0 z m -2,0 1,0 0,1 -1,0 z m -1,0 1,0 0,1 -1,0 z m -3,0 1,0 0,1 -1,0 z m -1,0 1,0 0,1 -1,0 z m -3,0 1,0 0,1 -1,0 z m -1,0 1,0 0,1 -1,0 z m -2,0 1,0 0,1 -1,0 z m -2,0 1,0 0,1 -1,0 z m -6,0 1,0 0,1 -1,0 z m 29,-1 1,0 0,1 -1,0 z m -4,0 1,0 0,1 -1,0 z m -1,0 1,0 0,1 -1,0 z m -1,0 1,0 0,1 -1,0 z m -1,0 1,0 0,1 -1,0 z m -1,0 1,0 0,1 -1,0 z m -1,0 1,0 0,1 -1,0 z m -2,0 1,0 0,1 -1,0 z m -3,0 1,0 0,1 -1,0 z m -3,0 1,0 0,1 -1,0 z m -1,0 1,0 0,1 -1,0 z m -1,0 1,0 0,1 -1,0 z m -2,0 1,0 0,1 -1,0 z m -2,0 1,0 0,1 -1,0 z m -2,0 1,0 0,1 -1,0 z m -1,0 1,0 0,1 -1,0 z m -1,0 1,0 0,1 -1,0 z m -2,0 1,0 0,1 -1,0 z m 32,-1 1,0 0,1 -1,0 z m -1,0 1,0 0,1 -1,0 z m -1,0 1,0 0,1 -1,0 z m -1,0 1,0 0,1 -1,0 z m -2,0 1,0 0,1 -1,0 z m -2,0 1,0 0,1 -1,0 z m -1,0 1,0 0,1 -1,0 z m -3,0 1,0 0,1 -1,0 z m -1,0 1,0 0,1 -1,0 z m -1,0 1,0 0,1 -1,0 z m -2,0 1,0 0,1 -1,0 z m -1,0 1,0 0,1 -1,0 z m -8,0 1,0 0,1 -1,0 z m -2,0 1,0 0,1 -1,0 z m -2,0 1,0 0,1 -1,0 z m -1,0 1,0 0,1 -1,0 z m -1,0 1,0 0,1 -1,0 z m -2,0 1,0 0,1 -1,0 z m 32,-1 1,0 0,1 -1,0 z m -1,0 1,0 0,1 -1,0 z m -1,0 1,0 0,1 -1,0 z m -2,0 1,0 0,1 -1,0 z m -1,0 1,0 0,1 -1,0 z m -1,0 1,0 0,1 -1,0 z m -1,0 1,0 0,1 -1,0 z m -1,0 1,0 0,1 -1,0 z m -2,0 1,0 0,1 -1,0 z m -3,0 1,0 0,1 -1,0 z m -1,0 1,0 0,1 -1,0 z m -1,0 1,0 0,1 -1,0 z m -2,0 1,0 0,1 -1,0 z m -1,0 1,0 0,1 -1,0 z m -2,0 1,0 0,1 -1,0 z m -2,0 1,0 0,1 -1,0 z m -1,0 1,0 0,1 -1,0 z m -1,0 1,0 0,1 -1,0 z m -2,0 1,0 0,1 -1,0 z m -2,0 1,0 0,1 -1,0 z m -1,0 1,0 0,1 -1,0 z m -1,0 1,0 0,1 -1,0 z m -2,0 1,0 0,1 -1,0 z m 31,-1 1,0 0,1 -1,0 z m -1,0 1,0 0,1 -1,0 z m -1,0 1,0 0,1 -1,0 z m -1,0 1,0 0,1 -1,0 z m -4,0 1,0 0,1 -1,0 z m -1,0 1,0 0,1 -1,0 z m -2,0 1,0 0,1 -1,0 z m -3,0 1,0 0,1 -1,0 z m -2,0 1,0 0,1 -1,0 z m -1,0 1,0 0,1 -1,0 z m -2,0 1,0 0,1 -1,0 z m -1,0 1,0 0,1 -1,0 z m -2,0 1,0 0,1 -1,0 z m -4,0 1,0 0,1 -1,0 z m -6,0 1,0 0,1 -1,0 z m 31,-1 1,0 0,1 -1,0 z m -1,0 1,0 0,1 -1,0 z m -1,0 1,0 0,1 -1,0 z m -1,0 1,0 0,1 -1,0 z m -2,0 1,0 0,1 -1,0 z m -2,0 1,0 0,1 -1,0 z m -1,0 1,0 0,1 -1,0 z m -2,0 1,0 0,1 -1,0 z m -4,0 1,0 0,1 -1,0 z m -1,0 1,0 0,1 -1,0 z m -1,0 1,0 0,1 -1,0 z m -1,0 1,0 0,1 -1,0 z m -1,0 1,0 0,1 -1,0 z m -3,0 1,0 0,1 -1,0 z m -2,0 1,0 0,1 -1,0 z m -2,0 1,0 0,1 -1,0 z m -1,0 1,0 0,1 -1,0 z m -1,0 1,0 0,1 -1,0 z m -1,0 1,0 0,1 -1,0 z m -1,0 1,0 0,1 -1,0 z m -1,0 1,0 0,1 -1,0 z m -1,0 1,0 0,1 -1,0 z m 32,-1 1,0 0,1 -1,0 z m -2,0 1,0 0,1 -1,0 z m -2,0 1,0 0,1 -1,0 z m -4,0 1,0 0,1 -1,0 z m -1,0 1,0 0,1 -1,0 z m -3,0 1,0 0,1 -1,0 z m -2,0 1,0 0,1 -1,0 z m -1,0 1,0 0,1 -1,0 z m -1,0 1,0 0,1 -1,0 z m -2,0 1,0 0,1 -1,0 z m -1,0 1,0 0,1 -1,0 z m -1,0 1,0 0,1 -1,0 z m -2,0 1,0 0,1 -1,0 z m -2,0 1,0 0,1 -1,0 z m 21,-1 1,0 0,1 -1,0 z m -1,0 1,0 0,1 -1,0 z m -1,0 1,0 0,1 -1,0 z m -1,0 1,0 0,1 -1,0 z m -1,0 1,0 0,1 -1,0 z m -1,0 1,0 0,1 -1,0 z m -2,0 1,0 0,1 -1,0 z m -3,0 1,0 0,1 -1,0 z m -2,0 1,0 0,1 -1,0 z m -6,0 1,0 0,1 -1,0 z m -1,0 1,0 0,1 -1,0 z m -3,0 1,0 0,1 -1,0 z m -1,0 1,0 0,1 -1,0 z m -1,0 1,0 0,1 -1,0 z m -3,0 1,0 0,1 -1,0 z m -2,0 1,0 0,1 -1,0 z m 32,-1 1,0 0,1 -1,0 z m -2,0 1,0 0,1 -1,0 z m -4,0 1,0 0,1 -1,0 z m -2,0 1,0 0,1 -1,0 z m -1,0 1,0 0,1 -1,0 z m -2,0 1,0 0,1 -1,0 z m -1,0 1,0 0,1 -1,0 z m -4,0 1,0 0,1 -1,0 z m -2,0 1,0 0,1 -1,0 z m -3,0 1,0 0,1 -1,0 z m -4,0 1,0 0,1 -1,0 z m -2,0 1,0 0,1 -1,0 z m -5,0 1,0 0,1 -1,0 z m 31,-1 1,0 0,1 -1,0 z m -4,0 1,0 0,1 -1,0 z m -2,0 1,0 0,1 -1,0 z m -1,0 1,0 0,1 -1,0 z m -3,0 1,0 0,1 -1,0 z m -6,0 1,0 0,1 -1,0 z m -3,0 1,0 0,1 -1,0 z m -1,0 1,0 0,1 -1,0 z m -2,0 1,0 0,1 -1,0 z m -3,0 1,0 0,1 -1,0 z m -1,0 1,0 0,1 -1,0 z m -2,0 1,0 0,1 -1,0 z m -1,0 1,0 0,1 -1,0 z m -2,0 1,0 0,1 -1,0 z m 32,-1 1,0 0,1 -1,0 z m -6,0 1,0 0,1 -1,0 z m -4,0 1,0 0,1 -1,0 z m -3,0 1,0 0,1 -1,0 z m -2,0 1,0 0,1 -1,0 z m -1,0 1,0 0,1 -1,0 z m -11,0 1,0 0,1 -1,0 z m -3,0 1,0 0,1 -1,0 z m -1,0 1,0 0,1 -1,0 z m -1,0 1,0 0,1 -1,0 z m 32,-1 1,0 0,1 -1,0 z m -3,0 1,0 0,1 -1,0 z m -2,0 1,0 0,1 -1,0 z m -2,0 1,0 0,1 -1,0 z m -1,0 1,0 0,1 -1,0 z m -1,0 1,0 0,1 -1,0 z m -1,0 1,0 0,1 -1,0 z m -2,0 1,0 0,1 -1,0 z m -2,0 1,0 0,1 -1,0 z m -1,0 1,0 0,1 -1,0 z m -1,0 1,0 0,1 -1,0 z m -1,0 1,0 0,1 -1,0 z m -1,0 1,0 0,1 -1,0 z m -2,0 1,0 0,1 -1,0 z m -2,0 1,0 0,1 -1,0 z m -4,0 1,0 0,1 -1,0 z m -2,0 1,0 0,1 -1,0 z m -3,0 1,0 0,1 -1,0 z m 30,-1 1,0 0,1 -1,0 z m -1,0 1,0 0,1 -1,0 z m -2,0 1,0 0,1 -1,0 z m -4,0 1,0 0,1 -1,0 z m -1,0 1,0 0,1 -1,0 z m -2,0 1,0 0,1 -1,0 z m -2,0 1,0 0,1 -1,0 z m -1,0 1,0 0,1 -1,0 z m -5,0 1,0 0,1 -1,0 z m -1,0 1,0 0,1 -1,0 z m -3,0 1,0 0,1 -1,0 z m -1,0 1,0 0,1 -1,0 z m -1,0 1,0 0,1 -1,0 z m -2,0 1,0 0,1 -1,0 z m -1,0 1,0 0,1 -1,0 z m -1,0 1,0 0,1 -1,0 z m -1,0 1,0 0,1 -1,0 z m 29,-1 1,0 0,1 -1,0 z m -5,0 1,0 0,1 -1,0 z m -2,0 1,0 0,1 -1,0 z m -9,0 1,0 0,1 -1,0 z m -1,0 1,0 0,1 -1,0 z m -1,0 1,0 0,1 -1,0 z m -6,0 1,0 0,1 -1,0 z m -1,0 1,0 0,1 -1,0 z m -4,0 1,0 0,1 -1,0 z m -1,0 1,0 0,1 -1,0 z m 31,-1 1,0 0,1 -1,0 z m -1,0 1,0 0,1 -1,0 z m -2,0 1,0 0,1 -1,0 z m -2,0 1,0 0,1 -1,0 z m -1,0 1,0 0,1 -1,0 z m -5,0 1,0 0,1 -1,0 z m -1,0 1,0 0,1 -1,0 z m -1,0 1,0 0,1 -1,0 z m -1,0 1,0 0,1 -1,0 z m -1,0 1,0 0,1 -1,0 z m -1,0 1,0 0,1 -1,0 z m -2,0 1,0 0,1 -1,0 z m -1,0 1,0 0,1 -1,0 z m -1,0 1,0 0,1 -1,0 z m -2,0 1,0 0,1 -1,0 z m -3,0 1,0 0,1 -1,0 z m -3,0 1,0 0,1 -1,0 z m -1,0 1,0 0,1 -1,0 z m -1,0 1,0 0,1 -1,0 z m -2,0 1,0 0,1 -1,0 z m 31,-1 1,0 0,1 -1,0 z m -3,0 1,0 0,1 -1,0 z m -3,0 1,0 0,1 -1,0 z m -2,0 1,0 0,1 -1,0 z m -1,0 1,0 0,1 -1,0 z m -1,0 1,0 0,1 -1,0 z m -1,0 1,0 0,1 -1,0 z m -3,0 1,0 0,1 -1,0 z m -6,0 1,0 0,1 -1,0 z m -1,0 1,0 0,1 -1,0 z m -2,0 1,0 0,1 -1,0 z m -1,0 1,0 0,1 -1,0 z m -1,0 1,0 0,1 -1,0 z m -1,0 1,0 0,1 -1,0 z m -2,0 1,0 0,1 -1,0 z m -1,0 1,0 0,1 -1,0 z m -2,0 1,0 0,1 -1,0 z m 30,-1 1,0 0,1 -1,0 z m -1,0 1,0 0,1 -1,0 z m -3,0 1,0 0,1 -1,0 z m -1,0 1,0 0,1 -1,0 z m -1,0 1,0 0,1 -1,0 z m -1,0 1,0 0,1 -1,0 z m -2,0 1,0 0,1 -1,0 z m -1,0 1,0 0,1 -1,0 z m -1,0 1,0 0,1 -1,0 z m -4,0 1,0 0,1 -1,0 z m -1,0 1,0 0,1 -1,0 z m -3,0 1,0 0,1 -1,0 z m -3,0 1,0 0,1 -1,0 z m -1,0 1,0 0,1 -1,0 z m -2,0 1,0 0,1 -1,0 z m -1,0 1,0 0,1 -1,0 z m -3,0 1,0 0,1 -1,0 z m 30,-1 1,0 0,1 -1,0 z m -1,0 1,0 0,1 -1,0 z m -1,0 1,0 0,1 -1,0 z m -2,0 1,0 0,1 -1,0 z m -3,0 1,0 0,1 -1,0 z m -8,0 1,0 0,1 -1,0 z m -1,0 1,0 0,1 -1,0 z m -3,0 1,0 0,1 -1,0 z m -1,0 1,0 0,1 -1,0 z m -1,0 1,0 0,1 -1,0 z m -1,0 1,0 0,1 -1,0 z m -3,0 1,0 0,1 -1,0 z m -1,0 1,0 0,1 -1,0 z m -3,0 1,0 0,1 -1,0 z m -2,0 1,0 0,1 -1,0 z m 32,-1 1,0 0,1 -1,0 z m -6,0 1,0 0,1 -1,0 z m -1,0 1,0 0,1 -1,0 z m -2,0 1,0 0,1 -1,0 z m -1,0 1,0 0,1 -1,0 z m -1,0 1,0 0,1 -1,0 z m -2,0 1,0 0,1 -1,0 z m -1,0 1,0 0,1 -1,0 z m -2,0 1,0 0,1 -1,0 z m -9,0 1,0 0,1 -1,0 z m -2,0 1,0 0,1 -1,0 z m -3,0 1,0 0,1 -1,0 z m -1,0 1,0 0,1 -1,0 z m -1,0 1,0 0,1 -1,0 z m 28,-1 1,0 0,1 -1,0 z m -3,0 1,0 0,1 -1,0 z m -1,0 1,0 0,1 -1,0 z m -1,0 1,0 0,1 -1,0 z m -1,0 1,0 0,1 -1,0 z m -1,0 1,0 0,1 -1,0 z m -1,0 1,0 0,1 -1,0 z m -3,0 1,0 0,1 -1,0 z m -2,0 1,0 0,1 -1,0 z m -1,0 1,0 0,1 -1,0 z m -2,0 1,0 0,1 -1,0 z m -2,0 1,0 0,1 -1,0 z m -1,0 1,0 0,1 -1,0 z m -1,0 1,0 0,1 -1,0 z m -1,0 1,0 0,1 -1,0 z m -1,0 1,0 0,1 -1,0 z m -1,0 1,0 0,1 -1,0 z m -1,0 1,0 0,1 -1,0 z m -1,0 1,0 0,1 -1,0 z m -1,0 1,0 0,1 -1,0 z m -1,0 1,0 0,1 -1,0 z m 31,-1 1,0 0,1 -1,0 z m -1,0 1,0 0,1 -1,0 z m -1,0 1,0 0,1 -1,0 z m -1,0 1,0 0,1 -1,0 z m -2,0 1,0 0,1 -1,0 z m -1,0 1,0 0,1 -1,0 z m -1,0 1,0 0,1 -1,0 z m -1,0 1,0 0,1 -1,0 z m -1,0 1,0 0,1 -1,0 z m -2,0 1,0 0,1 -1,0 z m -1,0 1,0 0,1 -1,0 z m -1,0 1,0 0,1 -1,0 z m -1,0 1,0 0,1 -1,0 z m -2,0 1,0 0,1 -1,0 z m -1,0 1,0 0,1 -1,0 z m -2,0 1,0 0,1 -1,0 z m -1,0 1,0 0,1 -1,0 z m -7,0 1,0 0,1 -1,0 z m -1,0 1,0 0,1 -1,0 z m -1,0 1,0 0,1 -1,0 z m 28,-1 1,0 0,1 -1,0 z m -2,0 1,0 0,1 -1,0 z m -3,0 1,0 0,1 -1,0 z m -6,0 1,0 0,1 -1,0 z m -2,0 1,0 0,1 -1,0 z m -1,0 1,0 0,1 -1,0 z m -1,0 1,0 0,1 -1,0 z m -1,0 1,0 0,1 -1,0 z m -1,0 1,0 0,1 -1,0 z m -1,0 1,0 0,1 -1,0 z m -3,0 1,0 0,1 -1,0 z m -2,0 1,0 0,1 -1,0 z m -2,0 1,0 0,1 -1,0 z m -2,0 1,0 0,1 -1,0 z m -1,0 1,0 0,1 -1,0 z m -1,0 1,0 0,1 -1,0 z m -1,0 1,0 0,1 -1,0 z m 31,-1 1,0 0,1 -1,0 z m -3,0 1,0 0,1 -1,0 z m -6,0 1,0 0,1 -1,0 z m -1,0 1,0 0,1 -1,0 z m -1,0 1,0 0,1 -1,0 z m -1,0 1,0 0,1 -1,0 z m -2,0 1,0 0,1 -1,0 z m -5,0 1,0 0,1 -1,0 z m -1,0 1,0 0,1 -1,0 z m -2,0 1,0 0,1 -1,0 z m -6,0 1,0 0,1 -1,0 z m -1,0 1,0 0,1 -1,0 z m -2,0 1,0 0,1 -1,0 z m -1,0 1,0 0,1 -1,0 z m 31,-1 1,0 0,1 -1,0 z m -2,0 1,0 0,1 -1,0 z m -2,0 1,0 0,1 -1,0 z m -2,0 1,0 0,1 -1,0 z m -1,0 1,0 0,1 -1,0 z m -2,0 1,0 0,1 -1,0 z m -1,0 1,0 0,1 -1,0 z m -4,0 1,0 0,1 -1,0 z m -6,0 1,0 0,1 -1,0 z M 9,8 10,8 10,9 9,9 Z M 8,8 9,8 9,9 8,9 Z M 7,8 8,8 8,9 7,9 Z M 6,8 7,8 7,9 6,9 Z M 4,8 5,8 5,9 4,9 Z M 3,8 4,8 4,9 3,9 Z M 2,8 3,8 3,9 2,9 Z M 1,8 2,8 2,9 1,9 Z M 0,8 1,8 1,9 0,9 Z m 23,-1 1,0 0,1 -1,0 z m -1,0 1,0 0,1 -1,0 z m -1,0 1,0 0,1 -1,0 z m -1,0 1,0 0,1 -1,0 z m -1,0 1,0 0,1 -1,0 z m -3,0 1,0 0,1 -1,0 z m -2,0 1,0 0,1 -1,0 z m -3,0 1,0 0,1 -1,0 z m -1,0 1,0 0,1 -1,0 z m -1,0 1,0 0,1 -1,0 z m 23,-1 1,0 0,1 -1,0 z m -1,0 1,0 0,1 -1,0 z m -1,0 1,0 0,1 -1,0 z m -1,0 1,0 0,1 -1,0 z m -1,0 1,0 0,1 -1,0 z m -1,0 1,0 0,1 -1,0 z m -1,0 1,0 0,1 -1,0 z m -2,0 1,0 0,1 -1,0 z m -2,0 1,0 0,1 -1,0 z m -2,0 1,0 0,1 -1,0 z m -2,0 1,0 0,1 -1,0 z m -2,0 1,0 0,1 -1,0 z m -2,0 1,0 0,1 -1,0 z m -2,0 1,0 0,1 -1,0 z m -2,0 1,0 0,1 -1,0 z M 8,6 9,6 9,7 8,7 Z M 6,6 7,6 7,7 6,7 Z M 5,6 6,6 6,7 5,7 Z M 4,6 5,6 5,7 4,7 Z M 3,6 4,6 4,7 3,7 Z M 2,6 3,6 3,7 2,7 Z M 1,6 2,6 2,7 1,7 Z M 0,6 1,6 1,7 0,7 Z m 32,-1 1,0 0,1 -1,0 z m -6,0 1,0 0,1 -1,0 z m -2,0 1,0 0,1 -1,0 z m -2,0 1,0 0,1 -1,0 z m -2,0 1,0 0,1 -1,0 z m -2,0 1,0 0,1 -1,0 z m -3,0 1,0 0,1 -1,0 z m -1,0 1,0 0,1 -1,0 z m -2,0 1,0 0,1 -1,0 z m -1,0 1,0 0,1 -1,0 z M 9,5 10,5 10,6 9,6 Z M 8,5 9,5 9,6 8,6 Z M 6,5 7,5 7,6 6,6 Z M 0,5 1,5 1,6 0,6 Z m 32,-1 1,0 0,1 -1,0 z m -2,0 1,0 0,1 -1,0 z m -1,0 1,0 0,1 -1,0 z m -1,0 1,0 0,1 -1,0 z m -2,0 1,0 0,1 -1,0 z m -5,0 1,0 0,1 -1,0 z m -2,0 1,0 0,1 -1,0 z m -1,0 1,0 0,1 -1,0 z m -2,0 1,0 0,1 -1,0 z m -3,0 1,0 0,1 -1,0 z M 9,4 10,4 10,5 9,5 Z M 6,4 7,4 7,5 6,5 Z M 4,4 5,4 5,5 4,5 Z M 3,4 4,4 4,5 3,5 Z M 2,4 3,4 3,5 2,5 Z M 0,4 1,4 1,5 0,5 Z m 32,-1 1,0 0,1 -1,0 z m -2,0 1,0 0,1 -1,0 z m -1,0 1,0 0,1 -1,0 z m -1,0 1,0 0,1 -1,0 z m -2,0 1,0 0,1 -1,0 z m -2,0 1,0 0,1 -1,0 z m -1,0 1,0 0,1 -1,0 z m -1,0 1,0 0,1 -1,0 z m -2,0 1,0 0,1 -1,0 z m -1,0 1,0 0,1 -1,0 z m -2,0 1,0 0,1 -1,0 z m -2,0 1,0 0,1 -1,0 z m -1,0 1,0 0,1 -1,0 z m -1,0 1,0 0,1 -1,0 z m -1,0 1,0 0,1 -1,0 z m -2,0 1,0 0,1 -1,0 z M 9,3 10,3 10,4 9,4 Z M 8,3 9,3 9,4 8,4 Z M 6,3 7,3 7,4 6,4 Z M 4,3 5,3 5,4 4,4 Z M 3,3 4,3 4,4 3,4 Z M 2,3 3,3 3,4 2,4 Z M 0,3 1,3 1,4 0,4 Z m 32,-1 1,0 0,1 -1,0 z m -2,0 1,0 0,1 -1,0 z m -1,0 1,0 0,1 -1,0 z m -1,0 1,0 0,1 -1,0 z m -2,0 1,0 0,1 -1,0 z m -2,0 1,0 0,1 -1,0 z m -1,0 1,0 0,1 -1,0 z m -1,0 1,0 0,1 -1,0 z m -1,0 1,0 0,1 -1,0 z m -1,0 1,0 0,1 -1,0 z m -1,0 1,0 0,1 -1,0 z m -1,0 1,0 0,1 -1,0 z m -4,0 1,0 0,1 -1,0 z m -2,0 1,0 0,1 -1,0 z M 6,2 7,2 7,3 6,3 Z M 4,2 5,2 5,3 4,3 Z M 3,2 4,2 4,3 3,3 Z M 2,2 3,2 3,3 2,3 Z M 0,2 1,2 1,3 0,3 Z m 32,-1 1,0 0,1 -1,0 z m -6,0 1,0 0,1 -1,0 z m -2,0 1,0 0,1 -1,0 z m -3,0 1,0 0,1 -1,0 z m -1,0 1,0 0,1 -1,0 z m -4,0 1,0 0,1 -1,0 z m -1,0 1,0 0,1 -1,0 z m -1,0 1,0 0,1 -1,0 z m -1,0 1,0 0,1 -1,0 z m -3,0 1,0 0,1 -1,0 z M 8,1 9,1 9,2 8,2 Z M 6,1 7,1 7,2 6,2 Z M 0,1 1,1 1,2 0,2 Z m 32,-1 1,0 0,1 -1,0 z m -1,0 1,0 0,1 -1,0 z m -1,0 1,0 0,1 -1,0 z m -1,0 1,0 0,1 -1,0 z m -1,0 1,0 0,1 -1,0 z m -1,0 1,0 0,1 -1,0 z m -1,0 1,0 0,1 -1,0 z m -3,0 1,0 0,1 -1,0 z m -1,0 1,0 0,1 -1,0 z m -1,0 1,0 0,1 -1,0 z m -1,0 1,0 0,1 -1,0 z m -1,0 1,0 0,1 -1,0 z m -1,0 1,0 0,1 -1,0 z m -1,0 1,0 0,1 -1,0 z m -1,0 1,0 0,1 -1,0 z m -3,0 1,0 0,1 -1,0 z m -1,0 1,0 0,1 -1,0 z m -2,0 1,0 0,1 -1,0 z M 6,0 7,0 7,1 6,1 Z M 5,0 6,0 6,1 5,1 Z M 4,0 5,0 5,1 4,1 Z M 3,0 4,0 4,1 3,1 Z M 2,0 3,0 3,1 2,1 Z M 1,0 2,0 2,1 1,1 Z M 0,0 1,0 1,1 0,1 Z" />
  </g>
  <text x="50%" y="96%" font-size="13%" text-anchor="middle">1GbDM4qKshfXtrJZkfJqgRRBxheShL2v7G</text>
</svg>
